<svg xmlns="http://www.w3.org/2000/svg" width="60" height="60" viewBox="0 0 60 60"><defs><style>.a,.b,.c{fill:none;}.b{stroke:#f3951c;stroke-width:3px;}.b,.c{stroke-linecap:round;stroke-linejoin:round;}.c{stroke:#2c40b5;stroke-width:2.5px;}</style></defs><g transform="translate(-295 -2044)"><rect class="a" width="60" height="60" transform="translate(295 2044)"/><g transform="translate(275 2024)"><ellipse class="b" cx="3.325" cy="2.85" rx="3.325" ry="2.85" transform="translate(38.55 40.45)"/><ellipse class="b" cx="2.85" cy="3.325" rx="2.85" ry="3.325" transform="translate(52.8 50.9)"/><path class="b" d="M57.658,40.058l-17.6,17.6"/><path class="b" d="M49,68A19,19,0,1,1,68,49"/><path class="c" d="M59.333,62.3h9.334A1.367,1.367,0,0,1,70,63.7h0v4.9A1.368,1.368,0,0,1,68.667,70H59.333A1.368,1.368,0,0,1,58,68.6h0V63.7a1.367,1.367,0,0,1,1.333-1.4Z"/><path class="c" d="M60.667,62.3V59.5a3.337,3.337,0,1,1,6.666,0h0v2.8"/></g></g></svg>