<svg xmlns="http://www.w3.org/2000/svg" width="60" height="60" viewBox="0 0 60 60"><defs><style>.a,.b,.c{fill:none;}.b{stroke:#f3951c;}.b,.c{stroke-linecap:round;stroke-linejoin:round;stroke-miterlimit:10;stroke-width:3px;}.c{stroke:#2c40b5;}</style></defs><g transform="translate(-295 -2222)"><rect class="a" width="60" height="60" transform="translate(295 2222)"/><g transform="translate(302 2229)"><path class="b" d="M37,37h7V52.205H37Zm0,12.579c-1.4,0-10.43,4.009-15.4,4.009-2.94,0-5.53-1.521-11.2-4.147C7.74,48.2,2,44.879,2,42.529s7.63.76,14.07,2.765" transform="translate(0 -10.587)"/><circle class="c" cx="5.529" cy="5.529" r="5.529" transform="translate(18.948 3)"/><ellipse class="c" cx="5.5" cy="6" rx="5.5" ry="6" transform="translate(9.122 14.963)"/><path class="b" d="M31.776,48.676H24.865a2.765,2.765,0,1,1,0-5.529h2.765c8.294,0,5.529-4.147,15.205-4.147" transform="translate(-5.852 -11.205)"/></g></g></svg>