<svg xmlns="http://www.w3.org/2000/svg" width="131" height="24" viewBox="0 0 131 24"><defs><style>.a{fill:#0c9afc;}.b{fill:#0c293d;}</style></defs><path class="a" d="M0,0V10.376H9.865V20.889h9.822V0Z"/><path class="b" d="M154.569,34.647a.624.624,0,0,1,0-1.247h1.426a.475.475,0,0,1,.49.479h0V47.31h.547a.624.624,0,0,1,0,1.247h-2.376a.624.624,0,0,1,0-1.247h.547V34.647Z" transform="translate(-131.8 -28.59)"/><path class="b" d="M187.6,75.771a5.288,5.288,0,0,1-.245-10.571c2.779,0,4.58,2.347,4.666,5.213,0,.36-.173.749-.619.749h-7.849a4,4,0,0,0,4.032,3.356,6.243,6.243,0,0,0,2.405-.49c.475-.245.749-.043.864.173a.628.628,0,0,1-.274.85h0A6.736,6.736,0,0,1,187.6,75.771Zm-4.047-5.847h7.186c-.317-1.959-1.455-3.471-3.4-3.471A3.976,3.976,0,0,0,183.553,69.924Z" transform="translate(-156.046 -55.734)"/><path class="b" d="M261.447,76.269a.479.479,0,0,1-.475-.475V74.527a4.475,4.475,0,0,1-3.716,1.843,5.237,5.237,0,0,1-.115-10.47,4.31,4.31,0,0,1,3.831,2.059V66.39a.482.482,0,0,1,.475-.49H262.5a.62.62,0,0,1,0,1.239h-.274v7.878h.274a.62.62,0,0,1,0,1.239h-1.051Zm-4.263-9.131a3.894,3.894,0,0,0-3.845,3.946,3.847,3.847,0,0,0,3.874,4.032,3.908,3.908,0,0,0,3.874-3.975A3.963,3.963,0,0,0,257.184,67.139Z" transform="translate(-215.794 -56.333)"/><path class="b" d="M342.147,48.471a.481.481,0,0,1-.475-.479V46.716a4.464,4.464,0,0,1-3.716,1.857,5.275,5.275,0,0,1-.115-10.544,4.307,4.307,0,0,1,3.831,2.074v-5.57H341.4a.617.617,0,0,1,0-1.233h1.051a.481.481,0,0,1,.461.493v13.4h.274a.624.624,0,0,1,0,1.247h-1.037Zm-4.263-9.21a3.966,3.966,0,0,0-3.86,4,3.829,3.829,0,1,0,7.647.058,3.9,3.9,0,0,0-3.788-4.061Z" transform="translate(-284.872 -28.504)"/><path class="a" d="M423.509,65.129a.555.555,0,0,1,.619.547v2.333a.582.582,0,0,1-.59.533.567.567,0,0,1-.6-.533v-.043c0-1.181-1.109-1.757-2.232-1.757-.994,0-2.232.547-2.232,1.656,0,.994.965,1.483,2.779,1.915,1.613.4,3.24.806,3.24,2.765,0,1.915-1.858,3.024-3.557,3.024a3.567,3.567,0,0,1-2.621-1.051v.49a.555.555,0,0,1-.619.547.532.532,0,0,1-.591-.547V72.546a.656.656,0,0,1,1.311.043h0c0,1.368,1.325,1.858,2.506,1.843,1.023,0,2.347-.691,2.347-1.872s-1.325-1.4-2.29-1.627c-2.549-.547-3.687-1.469-3.687-3.068,0-1.8,1.7-2.765,3.284-2.765a3.089,3.089,0,0,1,2.376,1.023v-.461C422.918,65.287,423.206,65.129,423.509,65.129Z" transform="translate(-357.031 -55.649)"/><path class="a" d="M485.4,65.2a.62.62,0,0,1,0,1.239h-.274V78.393h.274a.612.612,0,0,1,0,1.224h-1.051a.482.482,0,0,1-.475-.49V73.511a4.31,4.31,0,0,1-3.831,2.059,5.237,5.237,0,0,1,.115-10.47,4.562,4.562,0,0,1,3.716,1.959V65.676a.479.479,0,0,1,.475-.475Zm-5.3,1.152a3.83,3.83,0,0,0-3.874,4.032,3.957,3.957,0,0,0,3.845,3.975,3.874,3.874,0,0,0,3.788-4.032,3.815,3.815,0,0,0-3.759-3.975Z" transform="translate(-406.593 -55.617)"/><path class="a" d="M563.89,67.053a.62.62,0,0,1,0-1.239h1.167a.474.474,0,0,1,.49.475v8.627h.475a.635.635,0,0,1,0,1.267H564.8a.486.486,0,0,1-.49-.49V74.571a4.125,4.125,0,0,1-3.5,1.6c-2.967,0-4.421-1.93-4.421-4.522V67.039h-.418a.62.62,0,0,1,0-1.239h1.167a.474.474,0,0,1,.49.475v5.372a2.956,2.956,0,0,0,3.183,3.284,3.232,3.232,0,0,0,3.5-3.514V67.053Z" transform="translate(-475.392 -56.248)"/><path class="a" d="M647.847,76.269a.479.479,0,0,1-.475-.475V74.527a4.475,4.475,0,0,1-3.716,1.843,5.237,5.237,0,0,1-.115-10.47,4.31,4.31,0,0,1,3.831,2.059V66.39a.474.474,0,0,1,.475-.49H648.9a.62.62,0,0,1,0,1.239h-.274v7.878h.274a.62.62,0,0,1,0,1.239h-1.051Zm-4.263-9.131a3.906,3.906,0,0,0-3.86,3.946,3.855,3.855,0,0,0,3.874,4.032,3.991,3.991,0,0,0-.014-7.978Z" transform="translate(-546.546 -56.333)"/><path class="a" d="M723.4,75.761a.48.48,0,0,1-.475.475H721.9a.619.619,0,0,1,0-1.239h.259V67.091H721.9a.612.612,0,0,1,0-1.224h1.023a.482.482,0,0,1,.475.49v1.267a4.05,4.05,0,0,1,3.672-1.757.571.571,0,0,1,.648.49v.115a.63.63,0,0,1-.648.634h-.058c-1.6,0-3.615.893-3.615,3.082Z" transform="translate(-617.422 -56.301)"/><path class="a" d="M768.8,75.771a5.288,5.288,0,0,1-.245-10.571c2.78,0,4.58,2.347,4.666,5.213,0,.36-.173.749-.619.749h-7.863a4,4,0,0,0,4.032,3.356,6.243,6.243,0,0,0,2.405-.49c.475-.245.749-.043.864.173a.628.628,0,0,1-.274.85h0A6.676,6.676,0,0,1,768.8,75.771Zm-4.061-5.847h7.186c-.317-1.959-1.469-3.471-3.4-3.471A4,4,0,0,0,764.739,69.924Z" transform="translate(-653.544 -55.734)"/><path class="a" d="M842.647,48.471a.481.481,0,0,1-.475-.479V46.716a4.464,4.464,0,0,1-3.716,1.857,5.275,5.275,0,0,1-.115-10.544,4.307,4.307,0,0,1,3.831,2.074v-5.57H841.9a.617.617,0,0,1,0-1.233h1.051a.494.494,0,0,1,.475.493h0V47.209h.274a.624.624,0,0,1,0,1.247h-1.051Zm-4.263-9.21a3.966,3.966,0,0,0-3.86,4,3.829,3.829,0,1,0,7.647.058A3.9,3.9,0,0,0,838.384,39.261Z" transform="translate(-713.292 -28.504)"/><path class="b" d="M9.865,79.145H0V68.6Z" transform="translate(0 -58.256)"/></svg>